# xmcd
#
# Track frame offsets: 
#        150
#        16587
#        32096
#        45164
#        54020
#        63415
#        79600
#        93506
#        106176
#        116864
#        130959
#        145053
#        161103
#        167629
#        183276
#        200084
#
# Disc length: 2903 seconds
#
# Revision: 0
# Processed by: cddbd v1.4PL0 Copyright (c) Steve Scherf et al.
# Submitted via: ExactAudioCopy v0.95a3
#
DISCID=c90b5510
DTITLE=Taoues - Dhouwar Yalwiza
DYEAR=1900
DGENRE=berbère
TTITLE0=Dhouwar yalwiza
TTITLE1=Inas imlayune
TTITLE2=Assa ts amaghra
TTITLE3=Souyas
TTITLE4=Mourthouminadh
TTITLE5=Travrats
TTITLE6=Dharayim
TTITLE7=Imidhasthanidh
TTITLE8=Assa naz ha
TTITLE9=Atas Inaatsave
TTITLE10=Oufigh thassakurth
TTITLE11=Ayamas
TTITLE12=A mohand ammi
TTITLE13=Iha iha
TTITLE14=Savoune tnache akramth athimazighine
TTITLE15=Misligh iwourar salwiwache
EXTD=
EXTT0=
EXTT1=
EXTT2=
EXTT3=
EXTT4=
EXTT5=
EXTT6=
EXTT7=
EXTT8=
EXTT9=
EXTT10=
EXTT11=
EXTT12=
EXTT13=
EXTT14=
EXTT15=
PLAYORDER=
